# xmcd
#
# Track frame offsets: 
#        150
#        11523
#        23346
#        33594
#        46017
#        58740
#        71463
#        84711
#        97509
#        108732
#        118830
#        129903
#
# Disc length: 1898 seconds
#
# Revision: 0
# Processed by: cddbd v1.5.2PL0 Copyright (c) Steve Scherf et al.
# Submitted via: ExactAudioCopy v1.0b4
#
DISCID=8d07680c
DTITLE=Kitty Wells - Kitty Wells
DYEAR=2010
DGENRE=Country
TTITLE0=It Wasn't God Who Made Honky Tonk Angels
TTITLE1=Paying For That Back Street Affair
TTITLE2=I Can't Stop Loving You
TTITLE3=Searching (For Someone Like You)
TTITLE4=Cheatin's A Sin
TTITLE5=Release Me
TTITLE6=One By One (with Red Foley)
TTITLE7=I'm A Stranger In My Own Home (with Red Foley)
TTITLE8=Thou Shalt Not Steal
TTITLE9=Whose Shoulder Will You Cry On
TTITLE10=I've Kissed You My Last Time
TTITLE11=You and Me (with Red Foley)
EXTD=
EXTT0=
EXTT1=
EXTT2=
EXTT3=
EXTT4=
EXTT5=
EXTT6=
EXTT7=
EXTT8=
EXTT9=
EXTT10=
EXTT11=
PLAYORDER=
